<?xml version="1.0" standalone="no" ?>
<!DOCTYPE svg PUBLIC "-//W3C//DTD SVG 20010904//EN"
  "http://www.w3.org/TR/2001/REC-SVG-20010904/DTD/svg10.dtd">
<svg
  version="1.0"
  xmlns="http://www.w3.org/2000/svg"
  width="700.000000pt"
  height="700.000000pt"
  viewBox="0 0 700.000000 700.000000"
  preserveAspectRatio="xMidYMid meet"
>
<metadata>
Created by potrace 1.14, written by Peter Selinger 2001-2017
</metadata>
<g
    transform="translate(0.000000,700.000000) scale(0.100000,-0.100000)"
    fill="#000000"
    stroke="none"
  >
<path
      d="M1278 6990 c-635 -58 -1145 -529 -1255 -1160 -17 -100 -18 -222 -18
-2330 0 -2108 1 -2230 18 -2330 103 -591 554 -1042 1147 -1146 100 -18 209
-19 2330 -19 2108 0 2230 1 2330 18 592 103 1042 553 1146 1147 18 100 19 209
19 2330 0 2121 -1 2230 -19 2330 -103 589 -544 1033 -1136 1147 -90 17 -214
18 -2285 19 -1204 1 -2229 -2 -2277 -6z m505 -1150 c9 -11 17 -25 17 -30 0
-24 29 -8 32 17 4 35 33 42 59 14 15 -16 19 -35 19 -86 0 -50 3 -65 14 -65 9
0 16 12 18 27 4 37 32 41 63 10 21 -20 24 -32 22 -73 -2 -27 -2 -55 1 -61 7
-22 21 -14 24 14 4 40 34 42 69 4 15 -17 30 -31 33 -31 2 0 6 12 8 28 2 22 8
27 31 27 25 -1 27 2 27 42 0 32 -4 43 -15 43 -10 0 -15 -10 -15 -30 0 -25 -4
-30 -25 -30 -16 0 -25 6 -25 15 0 8 -7 15 -15 15 -12 0 -15 13 -15 55 0 54 1
55 28 55 24 0 28 4 27 27 0 40 31 42 66 4 34 -38 45 -39 44 -4 0 37 29 42 60
11 19 -19 24 -35 24 -74 -1 -70 0 -74 14 -74 7 0 13 11 12 27 0 36 29 42 59
11 18 -17 24 -35 24 -70 1 -47 0 -48 -28 -48 -27 0 -30 -3 -30 -31 0 -28 -3
-31 -27 -27 -29 4 -31 -3 -24 -74 1 -5 7 -8 14 -8 7 0 13 11 12 27 0 36 29 42
59 11 18 -17 24 -35 24 -70 1 -47 0 -48 -28 -48 -27 0 -30 -3 -30 -31 0 -28
-3 -31 -27 -27 -26 4 -28 2 -26 -32 1 -19 2 -38 2 -41 1 -4 8 -9 16 -12 11 -5
13 0 8 23 -5 27 -3 30 21 30 44 0 65 -28 65 -85 -1 -70 -1 -72 16 -78 11 -5
13 0 8 23 -5 27 -3 30 22 30 16 0 38 -11 57 -30 16 -16 31 -30 34 -30 2 0 1
14 -2 30 -6 29 -5 30 27 30 l34 0 -3 45 c-5 52 -32 65 -32 15 0 -25 -4 -30
-25 -30 -16 0 -25 6 -25 15 0 8 -6 15 -14 15 -11 0 -15 14 -15 56 0 56 0 56
29 52 27 -4 28 -2 23 24 -5 25 -3 28 22 28 16 0 38 -11 57 -30 16 -16 31 -30
34 -30 2 0 1 14 -2 30 -6 27 -4 30 20 30 46 0 65 -27 64 -93 -1 -41 3 -61 13
-68 11 -6 15 -2 17 21 2 22 8 30 23 30 35 0 57 -31 57 -82 1 -47 0 -48 -28
-48 -27 0 -30 -3 -30 -31 0 -28 -3 -31 -27 -27 -27 4 -28 2 -26 -35 1 -50 27
-71 31 -27 4 35 30 40 62 13 15 -13 20 -30 20 -65 0 -47 -1 -48 -30 -48 -27 0
-30 -3 -30 -30 0 -25 -4 -30 -24 -30 -19 0 -25 -6 -28 -31 -3 -20 1 -36 11
-47 15 -14 16 -13 19 16 4 38 31 43 63 13 16 -15 20 -29 18 -76 -2 -40 2 -59
12 -66 11 -6 15 -2 17 21 4 40 34 40 75 -2 l32 -32 3 32 c3 27 7 32 30 32 26
0 27 2 24 45 -5 52 -32 65 -32 15 0 -25 -4 -30 -25 -30 -16 0 -25 6 -25 15 0
8 -6 15 -14 15 -11 0 -15 14 -15 56 l0 56 30 -4 c26 -4 29 -2 29 24 0 39 32
37 73 -4 l32 -32 3 32 c4 38 31 43 63 13 16 -15 20 -29 18 -76 -2 -40 2 -59
12 -66 11 -6 15 -2 17 21 4 36 32 40 63 11 16 -15 20 -29 18 -76 -2 -40 2 -59
12 -66 11 -6 15 -2 17 21 4 40 34 40 75 -2 l32 -32 3 32 c3 27 7 32 30 32 26
0 27 2 24 45 -5 52 -32 65 -32 15 0 -25 -4 -30 -25 -30 -16 0 -25 6 -25 15 0
8 -6 15 -14 15 -11 0 -15 14 -15 56 l0 56 30 -4 c26 -4 29 -2 29 24 0 23 4 28
25 28 14 0 25 -4 25 -10 0 -5 7 -10 15 -10 8 0 15 -6 15 -14 0 -8 7 -16 15
-20 11 -4 15 2 15 24 0 25 4 30 25 30 14 0 25 -4 25 -10 0 -5 7 -10 15 -10 8
0 15 -7 15 -15 0 -8 7 -15 15 -15 9 0 15 9 15 25 0 21 5 25 28 25 26 0 27 2
24 45 -5 52 -32 65 -32 15 0 -25 -4 -30 -25 -30 -16 0 -25 6 -25 15 0 8 -6 15
-14 15 -11 0 -15 14 -15 55 0 54 1 55 30 55 24 0 29 4 29 25 0 21 5 25 28 25
26 0 27 2 24 45 -5 52 -32 65 -32 15 0 -25 -4 -30 -25 -30 -16 0 -25 6 -25 15
0 8 -7 15 -16 15 -11 0 -15 8 -14 28 5 73 0 112 -15 112 -10 0 -15 -10 -15
-30 0 -25 -4 -30 -25 -30 -16 0 -25 6 -25 15 0 8 -7 15 -15 15 -8 0 -15 7 -15
15 0 8 -7 15 -15 15 -10 0 -15 -10 -15 -30 0 -25 -4 -30 -25 -30 -22 0 -25 -4
-25 -39 0 -25 5 -41 15 -45 11 -4 15 2 15 24 0 25 4 30 25 30 14 0 25 -4 25
-10 0 -5 7 -10 15 -10 12 0 15 -13 15 -55 0 -54 0 -55 -30 -55 -27 0 -30 -3
-30 -30 0 -25 -4 -30 -25 -30 -16 0 -25 6 -25 15 0 8 -7 15 -15 15 -8 0 -15 7
-15 15 0 8 -7 15 -15 15 -10 0 -15 -10 -15 -30 0 -25 -4 -30 -25 -30 -16 0
-25 6 -25 15 0 8 -7 15 -16 15 -11 0 -15 8 -14 28 5 73 0 112 -15 112 -10 0
-15 -10 -15 -30 0 -25 -4 -30 -25 -30 -16 0 -25 6 -25 15 0 8 -6 15 -14 15
-11 0 -15 14 -15 56 l0 56 30 -4 c26 -4 29 -2 29 24 0 24 4 28 28 28 26 0 27
2 24 45 -5 52 -32 65 -32 15 0 -25 -4 -30 -25 -30 -16 0 -25 6 -25 15 0 8 -6
15 -14 15 -11 0 -15 14 -15 56 l0 56 30 -4 c27 -4 29 -2 29 29 0 27 4 33 20
33 11 0 23 -7 26 -15 4 -8 12 -15 20 -15 8 0 14 -6 14 -14 0 -8 7 -16 15 -20
12 -4 15 3 15 29 0 29 4 35 20 35 11 0 23 -7 26 -15 4 -8 12 -15 20 -15 8 0
14 -7 14 -15 0 -8 7 -15 15 -15 10 0 15 10 15 31 0 29 2 31 28 26 27 -5 27 -5
24 39 -5 52 -32 64 -32 14 0 -25 -4 -30 -25 -30 -16 0 -25 6 -25 15 0 8 -6 15
-14 15 -11 0 -15 14 -15 55 0 54 1 55 30 55 26 0 29 3 29 30 0 25 4 30 25 30
16 0 25 -6 25 -15 0 -8 7 -15 15 -15 8 0 15 -7 15 -15 0 -8 7 -15 15 -15 10 0
15 10 15 30 0 25 4 30 25 30 16 0 25 -6 25 -15 0 -8 7 -15 16 -15 11 0 15 -8
14 -27 -5 -74 0 -113 15 -113 10 0 15 10 15 30 0 25 4 30 25 30 16 0 25 -6 25
-15 0 -8 7 -15 15 -15 12 0 15 -14 15 -70 0 -56 3 -70 15 -70 10 0 15 10 15
30 0 25 4 30 25 30 16 0 25 -6 25 -15 0 -8 7 -15 15 -15 8 0 15 -7 15 -15 0
-8 7 -15 15 -15 10 0 15 10 15 31 0 28 3 31 28 27 26 -4 27 -3 23 39 -4 51
-31 62 -31 13 0 -25 -4 -30 -25 -30 -16 0 -25 6 -25 15 0 8 -6 15 -14 15 -11
0 -15 14 -15 55 0 54 1 55 30 55 26 0 29 3 29 30 0 25 4 30 25 30 16 0 25 -6
25 -15 0 -8 7 -15 15 -15 8 0 15 -7 15 -15 0 -8 7 -15 15 -15 10 0 15 10 15
30 0 25 4 30 25 30 16 0 25 -6 25 -15 0 -8 7 -15 15 -15 12 0 15 -14 15 -70 0
-56 3 -70 15 -70 10 0 15 10 15 30 0 25 4 30 25 30 16 0 25 -6 25 -15 0 -8 7
-15 15 -15 12 0 15 -13 15 -55 0 -54 0 -55 -30 -55 -27 0 -30 -3 -30 -30 0
-25 -4 -30 -25 -30 -22 0 -25 -4 -25 -40 0 -29 4 -40 15 -40 9 0 15 9 15 25 0
32 28 45 45 22 7 -10 17 -17 24 -17 7 0 11 -21 11 -55 0 -54 0 -55 -30 -55
-27 0 -30 -3 -30 -30 0 -25 -4 -30 -25 -30 -22 0 -25 -4 -25 -40 0 -29 4 -40
15 -40 9 0 15 9 15 25 0 20 5 25 25 25 14 0 25 -4 25 -10 0 -5 7 -10 15 -10
12 0 15 -14 15 -70 0 -56 3 -70 15 -70 9 0 15 9 15 25 0 20 5 25 25 25 14 0
25 -4 25 -10 0 -5 7 -10 15 -10 8 0 15 -7 15 -15 0 -8 7 -15 15 -15 9 0 15 9
15 25 0 21 5 25 28 25 26 0 27 2 24 45 -4 49 -28 64 -27 18 0 -23 -5 -29 -27
-31 -20 -2 -28 1 -28 12 0 9 -6 16 -14 16 -11 0 -15 14 -15 55 0 54 1 55 30
55 24 0 29 4 29 25 0 20 5 25 25 25 14 0 25 -4 25 -10 0 -5 7 -10 15 -10 8 0
15 -7 15 -15 0 -8 7 -15 15 -15 9 0 15 9 15 25 0 20 5 25 25 25 14 0 25 -4 25
-10 0 -5 7 -10 15 -10 12 0 15 -14 15 -70 0 -56 3 -70 15 -70 9 0 15 9 15 25
0 20 5 25 25 25 14 0 25 -4 25 -10 0 -5 7 -10 15 -10 12 0 15 -13 15 -55 0
-54 -1 -55 -28 -55 -24 0 -28 -4 -27 -27 0 -23 -5 -29 -27 -31 -25 -3 -28 -7
-28 -43 0 -28 4 -39 15 -39 9 0 15 9 15 25 0 20 5 25 25 25 14 0 25 -4 25 -10
0 -5 7 -10 15 -10 12 0 15 -13 15 -55 0 -54 -1 -55 -28 -55 -24 0 -28 -4 -27
-27 0 -23 -5 -29 -27 -31 -20 -2 -28 1 -28 12 0 9 -7 16 -15 16 -8 0 -15 7
-15 15 0 8 -6 15 -13 15 -7 0 -13 -12 -12 -27 0 -23 -5 -29 -27 -31 -20 -2
-28 1 -28 12 0 9 -7 16 -15 16 -8 0 -15 7 -15 15 0 8 -6 15 -13 15 -7 0 -13
-12 -12 -27 0 -23 -5 -29 -27 -31 -25 -3 -28 -7 -28 -43 0 -28 4 -39 15 -39 9
0 15 9 15 25 0 20 5 25 25 25 14 0 25 -4 25 -10 0 -5 7 -10 15 -10 12 0 15
-13 15 -55 0 -54 -1 -55 -28 -55 -24 0 -28 -4 -27 -27 0 -23 -5 -29 -27 -31
-20 -2 -28 1 -28 12 0 9 -7 16 -15 16 -8 0 -15 7 -15 15 0 8 -6 15 -13 15 -7
0 -13 -12 -12 -27 0 -23 -5 -29 -27 -31 -20 -2 -28 1 -28 12 0 9 -7 16 -15 16
-8 0 -15 7 -15 15 0 8 -7 15 -15 15 -10 0 -15 -10 -15 -30 0 -25 -4 -30 -24
-30 -18 0 -25 -6 -28 -28 -5 -37 0 -52 18 -52 8 0 14 10 14 25 0 30 29 34 60
8 15 -13 20 -30 20 -65 0 -47 -1 -48 -30 -48 -27 0 -30 -3 -30 -30 0 -25 -4
-30 -24 -30 -18 0 -25 -6 -28 -28 -5 -37 0 -52 18 -52 8 0 14 10 14 25 0 31
31 34 61 6 16 -15 20 -30 19 -67 -3 -70 -2 -74 15 -74 9 0 15 9 15 25 0 19 5
25 21 25 12 0 32 -11 45 -25 13 -14 28 -25 34 -25 5 0 10 11 10 25 0 21 5 25
28 25 28 0 28 -2 23 78 -2 25 -27 11 -26 -15 0 -23 -5 -29 -27 -31 -20 -2 -28
1 -28 12 0 9 -7 16 -15 16 -12 0 -14 12 -12 53 2 49 4 52 30 55 21 3 27 9 27
28 0 33 35 32 66 -1 13 -14 28 -25 34 -25 5 0 10 11 10 25 0 31 31 34 61 6 16
-15 20 -30 19 -67 -3 -70 -2 -74 15 -74 9 0 15 9 15 25 0 30 29 34 60 8 15
-13 20 -30 20 -65 0 -46 -1 -48 -28 -48 -24 0 -28 -4 -27 -27 0 -23 -5 -29
-26 -31 -21 -2 -28 -10 -31 -31 -5 -36 0 -51 18 -51 8 0 14 10 14 25 0 20 5
25 25 25 16 0 25 -6 25 -15 0 -8 7 -15 15 -15 11 0 15 -12 15 -50 0 -48 -1
-50 -28 -50 -24 0 -28 -4 -27 -27 0 -23 -5 -29 -27 -31 -20 -2 -28 1 -28 12 0
9 -7 16 -15 16 -8 0 -15 7 -15 15 0 8 -6 15 -13 15 -7 0 -13 -12 -12 -27 0
-23 -5 -29 -27 -31 -20 -2 -28 1 -28 12 0 9 -7 16 -15 16 -8 0 -15 7 -15 15 0
8 -6 15 -13 15 -7 0 -13 -12 -12 -27 0 -23 -5 -29 -26 -31 -21 -2 -28 -10 -31
-33 -3 -20 1 -37 11 -47 15 -14 16 -13 19 16 3 26 8 32 28 32 15 0 24 -6 24
-15 0 -8 7 -15 16 -15 12 0 14 -10 12 -52 -3 -49 -5 -53 -28 -53 -21 0 -25 -4
-25 -25 0 -20 -6 -26 -27 -28 -20 -2 -28 1 -28 12 0 9 -7 16 -15 16 -8 0 -15
4 -15 9 0 5 -6 11 -13 14 -8 3 -13 -4 -12 -22 0 -21 -5 -27 -27 -29 -20 -2
-28 1 -28 12 0 9 -5 16 -11 16 -6 0 -18 8 -27 17 -16 16 -17 15 -20 -15 -3
-26 -8 -32 -26 -32 -19 0 -25 -7 -28 -31 -3 -20 1 -36 11 -47 15 -14 16 -13
19 16 3 26 8 32 28 32 15 0 24 -6 24 -15 0 -8 7 -15 16 -15 12 0 14 -10 12
-52 -3 -50 -4 -53 -30 -53 -24 1 -28 -3 -28 -27 0 -23 -4 -28 -24 -28 -19 0
-25 -6 -28 -31 -3 -20 1 -36 11 -47 15 -14 16 -13 19 16 3 26 8 32 28 32 15 0
24 -6 24 -15 0 -8 7 -15 15 -15 12 0 15 -14 15 -64 0 -48 4 -65 15 -70 11 -4
15 2 15 24 0 25 4 30 25 30 16 0 25 -6 25 -15 0 -8 5 -15 11 -15 6 0 18 -8 27
-17 16 -16 17 -15 20 15 3 26 8 32 26 32 19 0 25 7 28 31 3 19 -1 36 -9 45
-19 18 -19 18 -18 -13 0 -23 -5 -29 -27 -31 -20 -2 -28 1 -28 12 0 9 -7 16
-16 16 -12 0 -14 10 -12 53 3 49 4 52 31 52 23 -1 27 3 27 27 0 23 4 28 25 28
16 0 25 -6 25 -15 0 -8 5 -15 11 -15 6 0 18 -8 27 -17 16 -16 17 -15 20 15 3
26 8 32 28 32 15 0 24 -6 24 -15 0 -8 7 -15 15 -15 12 0 15 -14 15 -64 0 -48
4 -65 15 -70 11 -4 15 2 15 24 0 25 4 30 25 30 16 0 25 -6 25 -15 0 -8 7 -15
15 -15 12 0 15 -13 15 -56 0 -56 0 -56 -28 -52 -26 4 -28 2 -24 -24 4 -26 2
-28 -27 -28 -29 0 -31 -2 -31 -39 0 -25 5 -41 15 -45 11 -4 15 2 15 24 0 25 4
30 25 30 16 0 25 -6 25 -15 0 -8 7 -15 15 -15 12 0 15 -13 15 -56 0 -56 0 -56
-28 -52 -26 4 -28 2 -24 -24 4 -26 2 -28 -27 -28 -30 0 -31 -1 -31 -45 0 -33
4 -45 15 -45 10 0 15 10 15 30 0 25 4 30 25 30 16 0 25 -6 25 -15 0 -8 7 -15
15 -15 12 0 15 -14 15 -70 0 -61 2 -70 18 -70 15 0 18 6 14 30 -4 27 -1 30 22
30 16 0 26 -5 26 -15 0 -8 7 -15 15 -15 8 0 15 -7 15 -15 0 -8 8 -15 18 -15
15 0 18 6 14 31 -4 30 -3 31 25 27 31 -4 31 -6 24 73 -1 4 -7 9 -14 12 -10 4
-12 -3 -9 -24 4 -27 2 -29 -27 -29 -21 0 -31 5 -31 15 0 8 -6 15 -14 15 -11 0
-14 13 -13 53 2 51 2 52 33 51 28 -1 30 1 26 27 -4 26 -1 29 22 29 16 0 26 -5
26 -15 0 -8 5 -15 11 -15 6 0 17 -7 25 -15 23 -23 31 -18 26 15 -4 27 -1 30
22 30 16 0 26 -5 26 -15 0 -8 7 -15 15 -15 12 0 15 -14 15 -70 0 -61 2 -70 18
-70 15 0 18 6 14 30 -4 27 -1 30 22 30 16 0 26 -5 26 -15 0 -8 7 -15 15 -15
12 0 15 -14 15 -70 0 -61 2 -70 18 -70 15 0 18 6 14 30 -4 27 -1 30 22 30 16
0 26 -5 26 -15 0 -8 7 -15 15 -15 8 0 15 -7 15 -15 0 -8 8 -15 18 -15 15 0 18
6 14 31 -4 30 -3 31 27 27 31 -4 31 -4 31 38 0 32 -4 43 -18 46 -15 4 -17 0
-14 -23 4 -27 2 -29 -27 -29 -21 0 -31 5 -31 15 0 8 -4 15 -10 15 -5 0 -10 25
-10 56 l0 57 28 -6 c27 -5 28 -4 24 24 -4 26 -1 29 22 29 16 0 26 -5 26 -15 0
-8 5 -15 11 -15 6 0 17 -7 25 -15 23 -23 31 -18 26 15 -4 27 -1 30 22 30 16 0
26 -5 26 -15 0 -8 5 -15 11 -15 6 0 17 -7 25 -15 23 -23 31 -18 26 16 -4 30
-3 31 27 27 31 -4 31 -4 31 38 0 32 -4 43 -18 46 -15 4 -17 0 -14 -23 4 -27 2
-29 -27 -29 -21 0 -31 5 -31 15 0 8 -4 15 -10 15 -5 0 -10 25 -10 56 l0 57 28
-6 c27 -5 28 -4 24 25 -4 29 -3 30 27 26 31 -4 31 -4 31 38 0 32 -4 43 -18 46
-15 4 -17 0 -14 -23 4 -27 2 -29 -27 -29 -21 0 -31 5 -31 15 0 8 -4 15 -10 15
-6 0 -10 28 -10 64 0 53 -3 64 -18 68 -15 4 -17 0 -14 -23 4 -27 2 -29 -27
-29 -17 0 -31 5 -31 11 0 13 -20 33 -41 41 -12 5 -14 0 -11 -23 4 -27 2 -29
-27 -29 -30 0 -31 -2 -31 -40 0 -22 2 -40 4 -40 2 0 11 -3 20 -6 13 -5 15 -1
10 25 -6 28 -4 31 18 31 37 0 58 -33 58 -91 0 -50 0 -51 -28 -47 -26 4 -28 2
-24 -24 4 -26 2 -28 -27 -28 -21 0 -31 5 -31 15 0 8 -7 15 -15 15 -8 0 -15 4
-15 9 0 5 -6 11 -13 14 -10 4 -12 -3 -9 -24 4 -27 2 -29 -27 -29 -21 0 -31 5
-31 15 0 8 -6 15 -14 15 -11 0 -15 13 -14 53 0 71 0 74 -15 80 -10 4 -12 -3
-9 -24 4 -27 2 -29 -27 -29 -21 0 -31 5 -31 15 0 8 -7 15 -15 15 -12 0 -14 12
-12 53 2 49 4 52 30 55 21 3 27 9 27 28 0 20 5 24 28 24 27 0 30 10 23 71 -1
4 -7 9 -14 12 -10 4 -12 -3 -9 -24 4 -27 2 -29 -27 -29 -21 0 -31 5 -31 15 0
8 -7 15 -15 15 -12 0 -14 12 -12 53 2 49 4 52 30 55 21 3 27 9 27 28 0 19 5
24 25 24 16 0 25 -6 25 -15 0 -8 7 -15 15 -15 8 0 15 -4 15 -10 0 -5 7 -10 15
-10 9 0 15 9 15 25 0 33 33 33 64 0 30 -32 46 -32 46 0 0 21 5 25 30 25 28 0
30 2 30 39 0 29 -5 40 -18 43 -15 4 -17 0 -14 -23 4 -27 2 -29 -27 -29 -20 0
-31 5 -31 14 0 8 -6 16 -14 19 -9 4 -13 21 -12 54 1 45 3 48 29 51 21 3 27 9
27 28 0 33 41 33 66 -1 10 -14 24 -25 31 -25 7 0 13 11 13 25 0 21 5 25 30 25
20 0 30 -5 30 -15 0 -8 5 -15 10 -15 6 0 10 -28 10 -65 0 -51 3 -65 15 -65 9
0 15 9 15 25 0 21 5 25 30 25 20 0 30 -5 30 -15 0 -8 5 -15 10 -15 6 0 10 -28
10 -65 0 -51 3 -65 15 -65 9 0 15 9 15 25 0 21 5 25 30 25 17 0 30 -5 30 -11
0 -14 25 -39 39 -39 6 0 11 11 11 25 0 21 5 25 30 25 28 0 30 2 30 40 0 22 -2
40 -4 40 -2 0 -11 2 -19 5 -10 5 -13 -1 -9 -25 4 -28 2 -30 -27 -30 -21 0 -31
5 -31 15 0 8 -4 15 -10 15 -5 0 -10 25 -10 55 0 52 1 55 25 55 20 0 25 5 25
25 0 21 5 25 30 25 17 0 30 -5 30 -11 0 -14 25 -39 39 -39 6 0 11 11 11 25 0
21 5 25 30 25 20 0 30 -5 30 -15 0 -8 5 -15 10 -15 6 0 10 -28 10 -65 0 -51 3
-65 15 -65 9 0 15 9 15 25 0 21 5 25 30 25 20 0 30 -5 30 -15 0 -8 5 -15 10
-15 6 0 10 -25 10 -56 0 -56 0 -56 -28 -52 -26 4 -28 2 -24 -24 4 -26 2 -28
-27 -28 -30 0 -31 -2 -31 -40 0 -29 4 -40 15 -40 9 0 15 9 15 25 0 21 5 25 30
25 20 0 30 -5 30 -15 0 -8 5 -15 10 -15 6 0 10 -25 10 -56 0 -56 0 -56 -28
-52 -26 4 -28 2 -24 -24 4 -26 2 -28 -27 -28 -29 0 -31 -2 -31 -39 0 -29 5
-40 18 -43 15 -4 17 0 14 23 -4 27 -2 29 27 29 21 0 31 -5 31 -15 0 -8 5 -15
10 -15 6 0 10 -28 10 -64 0 -53 3 -64 18 -68 15 -4 17 0 14 23 -4 27 -2 29 27
29 17 0 31 -5 31 -11 0 -13 20 -33 41 -41 12 -5 14 0 11 23 -4 27 -2 29 27 29
30 0 31 2 31 40 0 29 -4 40 -15 40 -9 0 -15 -9 -15 -25 0 -21 -5 -25 -30 -25
-20 0 -30 5 -30 15 0 8 -4 15 -10 15 -5 0 -10 25 -10 56 0 56 0 56 28 52 26
-4 28 -2 24 24 -4 26 -2 28 27 28 17 0 31 -5 31 -11 0 -13 20 -33 41 -41 12
-5 14 0 11 23 -4 27 -2 29 27 29 21 0 31 -5 31 -15 0 -8 5 -15 10 -15 6 0 10
-28 10 -64 0 -53 3 -64 18 -68 15 -4 17 0 14 23 -4 27 -2 29 27 29 21 0 31 -5
31 -15 0 -8 5 -15 10 -15 6 0 10 -25 10 -55 0 -52 -1 -55 -25 -55 -20 0 -25
-5 -25 -25 0 -21 -5 -25 -30 -25 -28 0 -30 -2 -30 -39 0 -29 5 -40 18 -43 15
-4 17 0 14 23 -4 27 -2 29 27 29 21 0 31 -5 31 -15 0 -8 5 -15 10 -15 6 0 10
-25 10 -55 0 -52 -1 -55 -25 -55 -20 0 -25 -5 -25 -25 0 -34 -40 -34 -66 0
-10 14 -24 25 -31 25 -7 0 -13 -11 -13 -25 0 -21 -5 -25 -30 -25 -16 0 -30 5
-30 11 0 14 -25 39 -39 39 -6 0 -11 -11 -11 -25 0 -21 -5 -25 -30 -25 -28 0
-30 -2 -30 -40 0 -22 2 -40 4 -40 2 0 11 -2 19 -5 10 -5 13 1 9 25 -4 28 -2
30 27 30 21 0 31 -5 31 -15 0 -8 5 -15 10 -15 6 0 10 -25 10 -55 0 -52 -1 -55
-25 -55 -20 0 -25 -5 -25 -25 0 -21 -5 -25 -30 -25 -16 0 -30 5 -30 11 0 14
-25 39 -39 39 -6 0 -11 -11 -11 -25 0 -21 -5 -25 -30 -25 -16 0 -30 5 -30 11
0 14 -25 39 -39 39 -6 0 -11 -11 -11 -25 0 -21 -5 -25 -30 -25 -29 0 -30 -2
-30 -45 0 -37 3 -45 18 -45 15 0 18 6 14 30 -4 28 -2 30 27 30 21 0 31 -5 31
-15 0 -8 5 -15 10 -15 6 0 10 -25 10 -55 0 -52 -1 -55 -25 -55 -20 0 -25 -5
-25 -25 0 -21 -5 -25 -30 -25 -29 0 -30 -2 -30 -45 0 -37 3 -45 18 -45 15 0
18 6 14 30 -4 28 -2 30 27 30 21 0 31 -5 31 -15 0 -8 5 -15 10 -15 6 0 10 -30
10 -70 0 -61 2 -70 18 -70 15 0 18 6 14 30 -4 28 -2 30 27 30 21 0 31 -5 31
-15 0 -8 5 -15 10 -15 6 0 10 -7 10 -15 0 -8 8 -15 18 -15 15 0 18 6 14 30 -4
28 -2 30 27 30 30 0 31 2 31 40 0 29 -4 40 -15 40 -9 0 -15 -9 -15 -25 0 -20
-5 -25 -26 -25 -39 0 -54 22 -54 79 0 49 1 51 28 51 26 0 28 3 24 30 -4 28 -2
30 27 30 21 0 31 -5 31 -15 0 -8 5 -15 10 -15 6 0 10 -7 10 -15 0 -8 8 -15 18
-15 15 0 18 6 14 30 -4 28 -2 30 27 30 21 0 31 -5 31 -15 0 -8 5 -15 10 -15 6
0 10 -30 10 -70 0 -61 2 -70 18 -70 15 0 18 6 14 30 -4 28 -2 30 27 30 21 0
31 -5 31 -15 0 -8 5 -15 10 -15 6 0 10 -25 10 -55 0 -52 -1 -55 -25 -55 -20 0
-25 -5 -25 -25 0 -21 -5 -25 -30 -25 -29 0 -30 -2 -30 -45 0 -37 3 -45 18 -45
15 0 18 6 14 30 -4 28 -2 30 27 30 21 0 31 -5 31 -15 0 -8 5 -15 10 -15 6 0
10 -25 10 -55 0 -52 -1 -55 -25 -55 -20 0 -25 -5 -25 -25 0 -20 -5 -25 -26
-25 -26 0 -54 20 -54 39 0 6 -7 11 -15 11 -9 0 -15 -9 -15 -25 0 -20 -5 -25
-26 -25 -26 0 -54 20 -54 39 0 6 -7 11 -15 11 -9 0 -15 -9 -15 -25 0 -21 -5
-25 -30 -25 -29 0 -30 -2 -30 -45 0 -33 4 -45 15 -45 10 0 15 10 15 30 0 27 3
30 30 30 20 0 30 -5 30 -15 0 -8 5 -15 10 -15 6 0 10 -25 10 -55 0 -52 -1 -55
-25 -55 -20 0 -25 -5 -25 -25 0 -20 -5 -25 -26 -25 -26 0 -54 20 -54 39 0 6
-7 11 -15 11 -9 0 -15 -9 -15 -25 0 -20 -5 -25 -26 -25 -42 0 -54 21 -54 94 0
52 -3 66 -15 66 -9 0 -15 -9 -15 -25 0 -20 -5 -25 -26 -25 -42 0 -54 21 -54
94 0 52 -3 66 -15 66 -9 0 -15 -9 -15 -25 0 -20 -5 -25 -26 -25 -26 0 -54 20
-54 39 0 6 -7 11 -15 11 -9 0 -15 -9 -15 -25 0 -21 -5 -25 -30 -25 -29 0 -30
-2 -30 -45 0 -33 4 -45 15 -45 10 0 15 10 15 30 0 25 4 30 23 30 36 0 57 -33
57 -90 0 -47 -2 -50 -25 -50 -20 0 -25 -5 -25 -25 0 -20 -5 -25 -26 -25 -26 0
-54 20 -54 39 0 6 -7 11 -15 11 -9 0 -15 -9 -15 -25 0 -20 -5 -25 -26 -25 -42
0 -54 21 -54 94 0 52 -3 66 -15 66 -9 0 -15 -9 -15 -25 0 -20 -5 -25 -26 -25
-42 0 -54 21 -54 94 0 52 -3 66 -15 66 -9 0 -15 -9 -15 -25 0 -20 -5 -25 -26
-25 -26 0 -54 20 -54 39 0 6 -7 11 -15 11 -9 0 -15 -9 -15 -25 0 -21 -5 -25
-30 -25 -29 0 -30 -2 -30 -45 0 -33 4 -45 15 -45 10 0 15 10 15 30 0 25 4 30
23 30 36 0 57 -33 57 -90 0 -47 -2 -50 -25 -50 -20 0 -25 -5 -25 -25 0 -20 -5
-25 -26 -25 -16 0 -36 11 -50 25 -29 31 -34 31 -34 0 0 -20 -5 -25 -26 -25
-16 0 -36 11 -50 25 -29 31 -34 31 -34 0 0 -21 -5 -25 -30 -25 -29 0 -30 -2
-30 -45 0 -33 4 -45 15 -45 10 0 15 10 15 30 0 25 4 30 25 30 16 0 25 -6 25
-15 0 -8 7 -15 15 -15 12 0 15 -13 15 -55 0 -52 -1 -55 -25 -55 -20 0 -25 -5
-25 -25 0 -21 -5 -25 -30 -25 -29 0 -30 -2 -30 -45 0 -33 4 -45 15 -45 10 0
15 10 15 30 0 25 4 30 25 30 16 0 25 -6 25 -15 0 -8 7 -15 15 -15 12 0 15 -14
15 -70 0 -56 3 -70 15 -70 10 0 15 10 15 30 0 25 4 30 25 30 16 0 25 -6 25
-15 0 -8 7 -15 15 -15 8 0 15 -7 15 -15 0 -8 7 -15 15 -15 10 0 15 10 15 31 0
29 2 31 30 27 29 -4 30 -4 30 39 0 49 -26 63 -32 16 -4 -37 -32 -41 -63 -11
-18 19 -23 33 -22 68 2 41 4 45 30 48 23 3 27 8 27 33 0 24 4 29 23 29 22 0
57 -31 57 -50 0 -6 7 -10 15 -10 10 0 15 10 15 30 0 25 4 30 23 30 39 0 57
-33 57 -105 0 -51 3 -65 15 -65 10 0 15 10 15 30 0 25 4 30 23 30 36 0 57 -33
57 -90 0 -46 -2 -50 -24 -50 -19 0 -25 -6 -28 -28 -2 -22 -8 -27 -30 -27 -26
1 -28 -2 -28 -42 0 -32 4 -43 15 -43 10 0 15 10 15 30 0 25 4 30 23 30 36 0
57 -33 57 -90 0 -46 -2 -50 -24 -50 -19 0 -25 -6 -28 -27 -4 -35 -33 -42 -59
-14 -10 11 -19 25 -19 31 0 23 -29 8 -32 -17 -4 -35 -33 -42 -59 -14 -10 11
-19 25 -19 31 0 24 -29 8 -32 -17 -2 -23 -8 -28 -30 -28 -26 1 -28 -2 -28 -42
0 -32 4 -43 15 -43 10 0 15 10 15 30 0 25 4 30 23 30 36 0 57 -33 57 -90 0
-46 -2 -50 -24 -50 -19 0 -25 -6 -28 -27 -4 -40 -34 -42 -69 -4 -15 17 -30 31
-33 31 -2 0 -6 -12 -8 -27 -4 -37 -32 -41 -63 -10 -21 20 -24 32 -22 73 2 27
2 55 -1 61 -7 22 -21 14 -24 -14 -4 -37 -32 -41 -63 -11 -19 19 -24 35 -24 74
1 68 0 74 -10 74 -5 0 -11 -12 -13 -27 -4 -40 -34 -42 -69 -4 -15 17 -30 31
-33 31 -2 0 -6 -12 -8 -28 -2 -22 -8 -27 -30 -27 -26 1 -28 -2 -28 -42 0 -32
4 -43 15 -43 10 0 15 10 15 30 0 25 4 30 25 30 16 0 25 -6 25 -15 0 -8 7 -15
15 -15 12 0 15 -13 15 -55 0 -52 -2 -55 -24 -55 -19 0 -25 -6 -28 -27 -2 -22
-9 -29 -30 -31 -16 -2 -28 1 -28 7 0 11 -35 51 -44 51 -3 0 -6 -12 -8 -27 -2
-22 -9 -29 -30 -31 -20 -2 -28 1 -28 12 0 9 -7 16 -16 16 -11 0 -15 8 -14 28
4 58 0 112 -9 112 -5 0 -11 -12 -13 -27 -3 -32 -44 -46 -54 -19 -3 9 -12 16
-19 16 -10 0 -14 16 -14 55 0 54 1 55 30 55 26 0 29 3 29 31 0 28 3 31 28 27
28 -4 30 3 23 75 -2 19 -20 4 -23 -20 -3 -32 -44 -46 -54 -19 -3 9 -12 16 -19
16 -10 0 -14 16 -14 55 0 54 1 55 30 55 26 0 29 3 29 31 0 28 3 31 28 27 28
-4 30 3 23 75 -2 19 -20 4 -23 -20 -4 -37 -32 -41 -63 -11 -19 19 -24 35 -24
74 1 69 0 74 -11 74 -5 0 -10 -11 -10 -25 0 -20 -5 -25 -26 -25 -16 0 -36 11
-50 25 -29 32 -43 32 -36 0 4 -22 1 -25 -27 -25 -30 0 -31 -1 -31 -45 0 -33 4
-45 15 -45 10 0 15 10 15 30 0 25 4 30 25 30 16 0 25 -6 25 -15 0 -8 7 -15 15
-15 12 0 15 -13 15 -55 0 -54 -1 -55 -28 -55 -24 0 -28 -4 -27 -27 0 -22 -5
-29 -23 -31 -13 -2 -25 3 -28 12 -3 9 -12 16 -20 16 -8 0 -14 7 -14 15 0 8 -6
15 -13 15 -7 0 -13 -12 -12 -27 0 -22 -5 -29 -23 -31 -13 -2 -25 3 -28 12 -3
9 -12 16 -20 16 -11 0 -14 17 -14 70 0 50 -4 70 -13 70 -7 0 -13 -12 -12 -27
0 -22 -5 -29 -23 -31 -13 -2 -25 3 -28 12 -3 9 -12 16 -20 16 -10 0 -14 15
-14 55 0 54 0 55 30 55 27 0 30 3 30 30 0 25 4 30 24 30 19 0 25 6 28 31 3 19
-1 36 -9 45 -21 20 -23 18 -16 -16 5 -28 4 -30 -26 -30 -17 0 -31 5 -31 10 0
6 -7 10 -15 10 -12 0 -15 13 -15 55 0 54 0 55 30 55 27 0 30 3 30 30 0 25 4
30 24 30 19 0 25 6 28 31 3 19 -1 36 -9 45 -21 20 -23 18 -16 -16 5 -27 3 -30
-21 -30 -47 0 -67 30 -65 95 2 40 -2 59 -12 66 -11 6 -15 2 -17 -21 -4 -40
-34 -40 -75 2 l-32 32 -3 -32 c-3 -26 -8 -32 -28 -32 -22 0 -24 -4 -24 -45 0
-33 4 -45 15 -45 10 0 15 10 15 30 0 25 4 30 25 30 16 0 25 -6 25 -15 0 -8 7
-15 15 -15 12 0 15 -13 15 -56 l0 -56 -30 4 c-27 4 -30 2 -30 -24 0 -23 -4
-28 -25 -28 -14 0 -25 5 -25 10 0 6 -7 10 -15 10 -8 0 -15 6 -15 14 0 8 -7 16
-15 20 -11 4 -15 -2 -15 -24 0 -25 -4 -30 -25 -30 -14 0 -25 5 -25 10 0 6 -7
10 -15 10 -12 0 -15 14 -15 69 0 52 -4 70 -15 75 -11 4 -15 -2 -15 -24 0 -25
-4 -30 -25 -30 -14 0 -25 5 -25 10 0 6 -7 10 -15 10 -12 0 -15 14 -15 69 0 52
-4 70 -15 75 -11 4 -15 -2 -15 -24 0 -25 -4 -30 -25 -30 -14 0 -25 5 -25 10 0
6 -7 10 -15 10 -8 0 -15 7 -15 15 0 8 -7 15 -15 15 -9 0 -15 -9 -15 -25 0 -21
-5 -25 -28 -25 -26 0 -27 -2 -24 -45 5 -52 32 -65 32 -15 0 25 4 30 25 30 16
0 25 -6 25 -15 0 -8 6 -15 14 -15 11 0 15 -14 15 -55 0 -54 -1 -55 -30 -55
-24 0 -29 -4 -29 -25 0 -20 -5 -25 -25 -25 -14 0 -25 5 -25 10 0 6 -7 10 -15
10 -8 0 -15 7 -15 15 0 8 -7 15 -15 15 -9 0 -15 -9 -15 -25 0 -20 -5 -25 -25
-25 -14 0 -25 5 -25 10 0 6 -7 10 -15 10 -8 0 -15 7 -15 15 0 8 -7 15 -15 15
-9 0 -15 -9 -15 -25 0 -21 -5 -25 -28 -25 -26 0 -27 -2 -24 -45 5 -52 32 -65
32 -15 0 25 4 30 25 30 16 0 25 -6 25 -15 0 -8 6 -15 14 -15 11 0 15 -14 15
-55 0 -54 -1 -55 -30 -55 -24 0 -29 -4 -29 -25 0 -21 -5 -25 -28 -25 -26 0
-27 -2 -24 -45 5 -52 32 -65 32 -15 0 25 4 30 25 30 16 0 25 -6 25 -15 0 -8 7
-15 16 -15 11 0 15 -8 14 -27 -5 -74 0 -113 15 -113 10 0 15 10 15 30 0 25 4
30 25 30 16 0 25 -6 25 -15 0 -8 7 -15 15 -15 8 0 15 -7 15 -15 0 -8 7 -15 15
-15 10 0 15 10 15 30 0 25 4 30 25 30 23 0 25 4 25 40 0 29 -4 40 -15 40 -10
0 -15 -10 -15 -30 0 -23 -4 -30 -20 -30 -11 0 -23 7 -26 15 -4 8 -12 15 -20
15 -10 0 -14 15 -14 55 0 54 0 55 30 55 27 0 30 3 30 30 0 25 4 30 25 30 16 0
25 -6 25 -15 0 -8 7 -15 15 -15 8 0 15 -7 15 -15 0 -8 7 -15 15 -15 10 0 15
10 15 30 0 25 4 30 25 30 16 0 25 -6 25 -15 0 -8 7 -15 16 -15 11 0 15 -8 14
-27 -5 -74 0 -113 15 -113 10 0 15 10 15 30 0 25 4 30 25 30 16 0 25 -6 25
-15 0 -8 6 -15 14 -15 11 0 15 -14 15 -55 0 -54 -1 -55 -30 -55 -26 0 -29 -3
-29 -31 0 -29 -2 -31 -28 -26 -27 5 -27 5 -24 -39 5 -52 32 -64 32 -14 0 25 4
30 25 30 16 0 25 -6 25 -15 0 -8 6 -15 14 -15 11 0 15 -14 15 -55 0 -54 -1
-55 -30 -55 -26 0 -29 -3 -29 -30 0 -25 -4 -30 -25 -30 -16 0 -25 6 -25 15 0
8 -7 15 -15 15 -8 0 -15 7 -15 15 0 8 -7 15 -15 15 -10 0 -15 -10 -15 -30 0
-25 -4 -30 -25 -30 -16 0 -25 6 -25 15 0 8 -7 15 -15 15 -8 0 -15 7 -15 15 0
8 -7 15 -15 15 -10 0 -15 -10 -15 -31 0 -28 -3 -31 -27 -27 -27 4 -28 3 -24
-39 4 -51 31 -62 31 -13 0 25 4 30 25 30 16 0 25 -6 25 -15 0 -8 6 -15 14 -15
11 0 15 -14 15 -55 0 -54 -1 -55 -30 -55 -26 0 -29 -3 -29 -30 0 -25 -4 -30
-25 -30 -16 0 -25 6 -25 15 0 8 -7 15 -15 15 -8 0 -15 7 -15 15 0 8 -7 15 -15
15 -10 0 -15 -10 -15 -30 0 -25 -4 -30 -25 -30 -16 0 -25 6 -25 15 0 8 -7 15
-15 15 -12 0 -15 14 -15 70 0 56 -3 70 -15 70 -10 0 -15 -10 -15 -30 0 -25 -4
-30 -25 -30 -16 0 -25 6 -25 15 0 8 -7 15 -15 15 -12 0 -15 14 -15 70 0 56 -3
70 -15 70 -10 0 -15 -10 -15 -30 0 -25 -4 -30 -25 -30 -16 0 -25 6 -25 15 0 8
-7 15 -15 15 -8 0 -15 7 -15 15 0 8 -7 15 -15 15 -10 0 -15 -10 -15 -31 0 -28
-3 -31 -27 -27 -27 4 -28 3 -24 -39 4 -51 31 -62 31 -13 0 25 4 30 25 30 16 0
25 -6 25 -15 0 -8 6 -15 14 -15 11 0 15 -14 15 -55 0 -54 -1 -55 -30 -55 -26
0 -29 -3 -29 -30 0 -25 -4 -30 -25 -30 -16 0 -25 6 -25 15 0 8 -7 15 -15 15
-8 0 -15 7 -15 15 0 8 -7 15 -15 15 -10 0 -15 -10 -15 -30 0 -25 -4 -30 -25
-30 -16 0 -25 6 -25 15 0 8 -7 15 -15 15 -12 0 -15 14 -15 70 0 56 -3 70 -15
70 -10 0 -15 -10 -15 -30 0 -25 -4 -30 -25 -30 -16 0 -25 6 -25 15 0 8 -7 15
-15 15 -12 0 -15 13 -15 55 0 54 1 55 28 55 24 0 28 4 27 28 0 22 5 28 28 30
24 3 27 7 27 43 0 28 -4 39 -15 39 -10 0 -15 -10 -15 -30 0 -25 -4 -30 -25
-30 -16 0 -25 6 -25 15 0 8 -7 15 -15 15 -12 0 -15 13 -15 55 0 54 1 55 28 55
24 0 28 4 27 28 0 22 5 28 28 30 24 3 27 7 27 43 0 28 -4 39 -15 39 -9 0 -15
-9 -15 -25 0 -32 -28 -45 -45 -22 -7 10 -17 17 -24 17 -7 0 -11 24 -11 70 0
56 -3 70 -15 70 -9 0 -15 -9 -15 -25 0 -20 -5 -25 -25 -25 -14 0 -25 5 -25 10
0 6 -7 10 -15 10 -8 0 -15 7 -15 15 0 8 -7 15 -15 15 -9 0 -15 -9 -15 -25 0
-21 -5 -25 -28 -25 -26 0 -27 -2 -24 -45 4 -49 28 -64 27 -18 0 23 5 29 28 31
19 2 27 -1 27 -12 0 -9 6 -16 14 -16 11 0 15 -14 15 -55 0 -54 -1 -55 -30 -55
-26 0 -29 -3 -29 -30 0 -25 -4 -30 -25 -30 -16 0 -25 6 -25 15 0 8 -7 15 -15
15 -8 0 -15 7 -15 15 0 27 -29 16 -32 -12 -2 -20 -9 -29 -25 -31 -16 -2 -23 2
-23 12 0 9 -7 16 -15 16 -12 0 -15 14 -15 70 0 56 -3 70 -15 70 -9 0 -15 -9
-15 -25 0 -32 -28 -45 -45 -22 -7 10 -17 17 -24 17 -7 0 -11 21 -11 55 0 54 1
55 28 55 24 0 28 4 27 28 0 22 5 28 28 30 24 3 27 7 27 43 0 28 -4 39 -15 39
-9 0 -15 -9 -15 -25 0 -20 -5 -25 -25 -25 -14 0 -25 5 -25 10 0 6 -7 10 -15
10 -12 0 -15 13 -15 55 0 54 1 55 28 55 24 0 28 4 27 28 0 22 5 28 28 30 19 2
27 -1 27 -12 0 -9 7 -16 15 -16 8 0 15 -7 15 -15 0 -8 6 -15 13 -15 7 0 13 12
12 28 0 22 5 28 28 30 19 2 27 -1 27 -12 0 -9 7 -16 15 -16 8 0 15 -7 15 -15
0 -8 6 -15 13 -15 7 0 13 12 12 27 0 23 5 29 28 31 24 3 27 7 27 43 0 28 -4
39 -15 39 -9 0 -15 -9 -15 -25 0 -20 -5 -25 -25 -25 -14 0 -25 5 -25 10 0 6
-7 10 -15 10 -12 0 -15 13 -15 55 0 54 1 55 28 55 24 0 28 4 27 28 0 22 5 28
28 30 19 2 27 -1 27 -12 0 -9 7 -16 15 -16 8 0 15 -7 15 -15 0 -8 6 -15 13
-15 7 0 13 12 12 28 0 22 5 28 28 30 19 2 27 -1 27 -12 0 -9 7 -16 15 -16 8 0
15 -7 15 -15 0 -8 6 -15 13 -15 7 0 13 12 12 28 0 22 5 28 28 30 24 3 27 7 27
43 0 28 -4 39 -15 39 -9 0 -15 -9 -15 -25 0 -20 -5 -25 -25 -25 -14 0 -25 5
-25 10 0 6 -7 10 -15 10 -12 0 -15 13 -15 55 0 54 1 55 28 55 24 0 28 4 27 28
0 22 5 28 28 30 24 3 27 7 27 43 0 28 -4 39 -15 39 -9 0 -15 -9 -15 -25 0 -20
-5 -25 -25 -25 -14 0 -25 5 -25 10 0 6 -7 10 -15 10 -12 0 -15 14 -15 70 0 56
-3 70 -15 70 -9 0 -15 -9 -15 -25 0 -19 -5 -25 -21 -25 -12 0 -32 11 -45 25
-13 14 -28 25 -34 25 -5 0 -10 -11 -10 -25 0 -21 -5 -25 -28 -25 -26 0 -27 -2
-24 -45 4 -49 28 -64 27 -17 0 22 5 28 28 30 19 2 27 -1 27 -12 0 -9 6 -16 14
-16 11 0 15 -14 15 -55 0 -54 -1 -55 -30 -55 -24 0 -29 -4 -29 -25 0 -20 -5
-25 -25 -25 -14 0 -25 5 -25 10 0 6 -7 10 -15 10 -8 0 -15 7 -15 15 0 8 -7 15
-15 15 -9 0 -15 -9 -15 -25 0 -20 -5 -25 -25 -25 -14 0 -25 5 -25 10 0 6 -7
10 -15 10 -12 0 -15 14 -15 70 0 56 -3 70 -15 70 -9 0 -15 -9 -15 -25 0 -20
-5 -25 -25 -25 -14 0 -25 5 -25 10 0 6 -7 10 -15 10 -12 0 -15 13 -15 55 0 54
1 55 28 55 26 0 28 3 24 30 -4 28 -2 30 27 30 30 0 31 2 31 40 0 29 -4 40 -15
40 -9 0 -15 -9 -15 -25 0 -30 -29 -34 -60 -8 -15 13 -20 30 -20 65 0 46 1 48
28 48 26 0 28 3 24 30 -4 28 -2 30 27 30 21 0 31 -5 31 -15 0 -8 7 -15 15 -15
8 0 15 -7 15 -15 0 -8 6 -15 13 -15 9 0 12 10 9 30 -4 28 -2 30 27 30 21 0 31
-5 31 -15 0 -8 7 -15 15 -15 8 0 15 -7 15 -15 0 -8 6 -15 13 -15 7 0 13 12 12
28 0 22 5 28 28 30 24 3 27 7 27 43 0 28 -4 39 -15 39 -9 0 -15 -9 -15 -25 0
-20 -5 -25 -25 -25 -16 0 -25 6 -25 15 0 8 -7 15 -16 15 -12 0 -14 10 -12 53
3 48 5 52 28 52 23 0 25 3 22 27 -4 26 -1 28 27 28 21 0 31 -5 31 -15 0 -8 7
-15 15 -15 8 0 15 -4 15 -9 0 -5 6 -11 13 -14 8 -3 13 4 12 22 0 21 5 27 28
29 19 2 27 -1 27 -12 0 -9 7 -16 15 -16 8 0 15 -4 15 -9 0 -5 6 -11 13 -14 8
-3 13 4 12 22 0 21 5 27 28 29 24 3 27 7 27 42 0 24 -5 40 -15 44 -11 4 -15
-2 -15 -24 0 -25 -4 -30 -25 -30 -16 0 -25 6 -25 15 0 8 -7 15 -15 15 -12 0
-15 13 -15 56 0 56 0 56 28 52 24 -3 27 -1 27 22 0 20 5 26 28 28 24 3 27 7
27 42 0 24 -5 40 -15 44 -11 4 -15 -2 -15 -24 0 -25 -4 -30 -25 -30 -16 0 -25
6 -25 15 0 8 -7 15 -15 15 -12 0 -15 14 -15 64 0 48 -4 65 -15 70 -11 4 -15
-2 -15 -24 0 -25 -4 -30 -25 -30 -16 0 -25 6 -25 15 0 8 -5 15 -11 15 -6 0
-18 8 -27 17 -16 16 -17 15 -20 -15 -3 -26 -8 -32 -26 -32 -19 0 -25 -7 -28
-31 -3 -19 1 -36 9 -45 19 -19 20 -18 15 16 -4 28 -2 30 27 30 21 0 31 -5 31
-15 0 -8 7 -15 16 -15 12 0 14 -10 12 -52 -3 -50 -4 -53 -30 -53 -24 1 -28 -3
-28 -27 0 -23 -4 -28 -25 -28 -16 0 -25 6 -25 15 0 8 -7 15 -15 15 -8 0 -15 5
-15 10 0 6 -7 10 -15 10 -9 0 -15 -9 -15 -25 0 -20 -5 -25 -25 -25 -16 0 -25
6 -25 15 0 8 -7 15 -15 15 -12 0 -15 14 -15 64 0 48 -4 65 -15 70 -11 4 -15
-2 -15 -24 0 -25 -4 -30 -25 -30 -16 0 -25 6 -25 15 0 8 -7 15 -15 15 -12 0
-15 13 -15 56 0 56 0 56 28 52 26 -4 28 -2 24 24 -4 26 -2 28 27 28 29 0 31 2
31 39 0 25 -5 41 -15 45 -11 4 -15 -2 -15 -24 0 -25 -4 -30 -25 -30 -16 0 -25
6 -25 15 0 8 -7 15 -15 15 -12 0 -15 13 -15 56 0 56 0 56 28 52 26 -4 28 -2
24 24 -4 26 -2 28 27 28 29 0 31 2 31 39 0 25 -5 41 -15 45 -11 4 -15 -2 -15
-24 0 -25 -4 -30 -25 -30 -16 0 -25 6 -25 15 0 8 -7 15 -15 15 -12 0 -15 14
-15 70 0 56 -3 70 -15 70 -10 0 -15 -10 -15 -30 0 -25 -4 -30 -25 -30 -16 0
-25 6 -25 15 0 8 -7 15 -15 15 -8 0 -15 7 -15 15 0 8 -7 15 -15 15 -10 0 -15
-10 -15 -30 0 -25 -4 -30 -24 -30 -19 0 -25 -6 -28 -31 -3 -19 1 -36 9 -45 19
-19 20 -18 15 16 -4 28 -2 30 27 30 21 0 31 -5 31 -15 0 -8 7 -15 16 -15 12 0
14 -10 12 -52 -3 -50 -4 -53 -30 -53 -24 1 -28 -3 -28 -27 0 -23 -4 -28 -25
-28 -16 0 -25 6 -25 15 0 8 -5 15 -11 15 -6 0 -18 8 -27 17 -16 16 -17 15 -20
-15 -3 -26 -8 -32 -28 -32 -15 0 -24 6 -24 15 0 8 -7 15 -15 15 -12 0 -15 14
-15 64 0 48 -4 65 -15 70 -11 4 -15 -2 -15 -24 0 -25 -4 -30 -25 -30 -16 0
-25 6 -25 15 0 8 -7 15 -15 15 -12 0 -15 14 -15 70 0 56 -3 70 -15 70 -10 0
-15 -10 -15 -30 0 -25 -4 -30 -25 -30 -16 0 -25 6 -25 15 0 8 -7 15 -15 15 -8
0 -15 7 -15 15 0 8 -7 15 -15 15 -10 0 -15 -10 -15 -30 0 -27 -3 -30 -30 -30
-28 0 -30 -2 -30 -40 0 -29 4 -40 15 -40 9 0 15 9 15 25 0 21 5 25 30 25 20 0
30 -5 30 -15 0 -8 6 -15 14 -15 11 0 14 -13 13 -52 -2 -51 -3 -53 -29 -53 -24
1 -28 -3 -28 -27 0 -39 -34 -37 -74 5 l-31 32 -3 -32 c-4 -43 -34 -44 -74 -3
-15 17 -32 30 -36 30 -5 0 -7 -13 -4 -30 4 -28 2 -30 -27 -30 -30 0 -31 -2
-31 -40 0 -29 4 -40 15 -40 9 0 15 9 15 25 0 21 5 25 30 25 20 0 30 -5 30 -15
0 -8 5 -15 10 -15 6 0 10 -25 10 -55 0 -52 -1 -55 -25 -55 -20 0 -25 -5 -25
-25 0 -21 -5 -25 -30 -25 -28 0 -30 -2 -30 -39 0 -29 5 -40 18 -43 15 -4 17 0
14 23 -4 27 -2 29 27 29 21 0 31 -5 31 -15 0 -8 5 -15 10 -15 6 0 10 -28 10
-64 0 -53 3 -64 18 -68 15 -4 17 0 14 23 -4 27 -2 29 27 29 17 0 31 -5 31 -11
0 -13 20 -33 41 -41 12 -5 14 0 11 23 -4 27 -2 29 27 29 30 0 31 2 31 40 0 32
-4 40 -19 40 -14 0 -17 -6 -13 -25 4 -22 1 -25 -22 -25 -16 0 -26 5 -26 15 0
8 -7 15 -15 15 -12 0 -15 13 -15 56 0 56 0 56 28 52 26 -4 28 -2 24 24 -4 26
-2 28 27 28 17 0 31 -5 31 -11 0 -13 20 -33 41 -41 12 -5 14 0 11 23 -4 27 -2
29 27 29 21 0 31 -5 31 -15 0 -8 5 -15 10 -15 6 0 10 -28 10 -64 0 -53 3 -64
18 -68 15 -4 17 0 14 23 -4 27 -2 29 27 29 21 0 31 -5 31 -15 0 -8 6 -15 14
-15 11 0 14 -13 13 -52 -2 -50 -4 -53 -29 -56 -22 -3 -28 -9 -28 -28 0 -20 -5
-24 -30 -24 -28 0 -30 -2 -30 -39 0 -29 5 -40 18 -43 15 -4 17 0 14 23 -4 27
-2 29 27 29 21 0 31 -5 31 -15 0 -8 6 -15 14 -15 11 0 14 -13 13 -52 -2 -50
-4 -53 -29 -56 -22 -3 -28 -9 -28 -28 0 -19 -5 -24 -25 -24 -16 0 -25 6 -25
15 0 8 -7 15 -15 15 -8 0 -15 5 -15 10 0 6 -7 10 -15 10 -9 0 -15 -9 -15 -25
0 -20 -5 -25 -25 -25 -16 0 -25 6 -25 15 0 8 -7 15 -15 15 -8 0 -15 5 -15 10
0 6 -7 10 -15 10 -9 0 -15 -9 -15 -25 0 -21 -5 -25 -31 -25 -29 0 -30 -1 -27
-42 2 -30 8 -44 19 -46 12 -2 15 4 11 28 -4 28 -2 30 27 30 21 0 31 -5 31 -15
0 -8 5 -15 10 -15 6 0 10 -25 10 -55 0 -52 -1 -55 -25 -55 -20 0 -25 -5 -25
-25 0 -33 -33 -33 -64 0 -30 32 -46 32 -46 0 0 -31 -31 -34 -60 -5 -16 16 -20
33 -20 80 0 47 -3 60 -15 60 -9 0 -15 -9 -15 -25 0 -19 -5 -25 -23 -25 -38 0
-57 33 -57 100 0 47 -3 60 -15 60 -9 0 -15 -9 -15 -25 0 -21 -5 -25 -30 -25
-16 0 -30 5 -30 11 0 14 -25 39 -39 39 -6 0 -11 -11 -11 -25 0 -21 -5 -25 -30
-25 -29 0 -30 -2 -30 -45 0 -37 3 -45 18 -45 15 0 18 6 14 30 -4 28 -2 30 27
30 21 0 31 -5 31 -15 0 -8 5 -15 10 -15 6 0 10 -25 10 -55 0 -52 -1 -55 -25
-55 -20 0 -25 -5 -25 -25 0 -21 -5 -25 -30 -25 -16 0 -30 5 -30 11 0 14 -25
39 -39 39 -6 0 -11 -11 -11 -25 0 -21 -5 -25 -30 -25 -20 0 -30 5 -30 15 0 8
-4 15 -10 15 -6 0 -10 28 -10 65 0 51 -3 65 -15 65 -9 0 -15 -9 -15 -25 0 -21
-5 -25 -30 -25 -20 0 -30 5 -30 15 0 8 -4 15 -10 15 -5 0 -10 25 -10 56 l0 57
28 -6 c27 -5 28 -4 24 24 -4 27 -2 29 27 29 29 0 31 2 31 39 0 29 -5 40 -18
43 -15 4 -17 0 -14 -23 4 -27 2 -29 -27 -29 -21 0 -31 5 -31 15 0 8 -4 15 -10
15 -5 0 -10 25 -10 56 0 56 0 56 28 52 26 -4 28 -2 24 24 -4 26 -2 28 27 28
29 0 31 2 31 39 0 29 -5 40 -18 43 -15 4 -17 0 -14 -23 4 -27 2 -29 -27 -29
-21 0 -31 5 -31 15 0 8 -4 15 -10 15 -6 0 -10 28 -10 64 0 53 -3 64 -18 68
-15 4 -17 0 -14 -23 4 -27 2 -29 -27 -29 -17 0 -31 5 -31 11 0 13 -20 33 -41
41 -12 5 -14 0 -11 -23 4 -27 2 -29 -27 -29 -29 0 -31 -2 -31 -39 0 -29 5 -40
18 -43 15 -4 17 0 14 23 -4 25 -1 29 20 29 37 0 58 -33 58 -91 0 -50 0 -51
-28 -47 -26 4 -28 2 -24 -24 4 -26 2 -28 -27 -28 -17 0 -31 5 -31 11 0 13 -20
33 -41 41 -12 5 -14 0 -11 -23 4 -27 2 -29 -27 -29 -21 0 -31 5 -31 15 0 8 -4
15 -10 15 -6 0 -10 28 -10 64 0 53 -3 64 -18 68 -15 4 -17 0 -14 -23 4 -27 2
-29 -27 -29 -21 0 -31 5 -31 15 0 8 -4 15 -10 15 -5 0 -10 25 -10 55 0 52 1
55 25 55 20 0 25 5 25 25 0 21 5 25 30 25 28 0 30 2 30 39 0 29 -5 40 -18 43
-15 4 -17 0 -14 -23 4 -27 2 -29 -27 -29 -21 0 -31 5 -31 15 0 8 -4 15 -10 15
-5 0 -10 25 -10 55 0 52 1 55 25 55 20 0 25 5 25 25 0 19 5 25 20 25 12 0 31
-11 44 -25 13 -14 28 -25 35 -25 6 0 11 11 11 25 0 34 40 34 66 0 24 -32 44
-32 44 0 0 21 5 25 31 25 29 0 30 1 27 42 -2 30 -8 44 -19 46 -12 2 -15 -4
-11 -28 4 -28 2 -30 -27 -30 -21 0 -31 5 -31 15 0 8 -4 15 -10 15 -5 0 -10 25
-10 55 0 52 1 55 25 55 20 0 25 5 25 25 0 21 5 25 30 25 17 0 30 -5 30 -11 0
-14 25 -39 39 -39 6 0 11 11 11 25 0 21 5 25 30 25 17 0 30 -5 30 -11 0 -14
25 -39 39 -39 6 0 11 11 11 25 0 21 5 25 30 25 29 0 30 2 30 45 0 37 -3 45
-18 45 -15 0 -18 -6 -14 -30 4 -28 2 -30 -27 -30 -21 0 -31 5 -31 15 0 8 -4
15 -10 15 -5 0 -10 25 -10 55 0 52 1 55 25 55 20 0 25 5 25 25 0 21 5 25 30
25 29 0 30 2 30 45 0 37 -3 45 -18 45 -15 0 -18 -6 -14 -30 4 -28 2 -30 -27
-30 -21 0 -31 5 -31 15 0 8 -4 15 -10 15 -6 0 -10 30 -10 70 0 61 -2 70 -18
70 -15 0 -18 -6 -14 -30 4 -28 2 -30 -27 -30 -21 0 -31 5 -31 15 0 8 -4 15
-10 15 -5 0 -10 7 -10 15 0 8 -8 15 -18 15 -15 0 -18 -6 -14 -30 4 -28 2 -30
-27 -30 -30 0 -31 -2 -31 -40 0 -29 4 -40 15 -40 9 0 15 9 15 25 0 20 5 25 26
25 39 0 54 -22 54 -79 0 -49 -1 -51 -28 -51 -26 0 -28 -3 -24 -30 4 -28 2 -30
-27 -30 -21 0 -31 5 -31 15 0 8 -4 15 -10 15 -5 0 -10 7 -10 15 0 8 -8 15 -18
15 -15 0 -18 -6 -14 -30 4 -28 2 -30 -27 -30 -21 0 -31 5 -31 15 0 8 -4 15
-10 15 -6 0 -10 30 -10 70 0 61 -2 70 -18 70 -15 0 -18 -6 -14 -30 4 -28 2
-30 -27 -30 -21 0 -31 5 -31 15 0 8 -4 15 -10 15 -5 0 -10 25 -10 55 0 52 1
55 25 55 20 0 25 5 25 25 0 21 5 25 30 25 29 0 30 2 30 45 0 37 -3 45 -18 45
-15 0 -18 -6 -14 -30 4 -28 2 -30 -27 -30 -21 0 -31 5 -31 15 0 8 -4 15 -10
15 -5 0 -10 25 -10 55 0 52 1 55 25 55 20 0 25 5 25 25 0 20 5 25 25 25 14 0
25 -4 25 -10 0 -5 7 -10 15 -10 8 0 15 -7 15 -15 0 -8 7 -15 15 -15 9 0 15 9
15 25 0 20 5 25 26 25 26 0 54 -20 54 -39 0 -6 7 -11 15 -11 9 0 15 9 15 25 0
21 5 25 30 25 29 0 30 2 30 45 0 37 -3 45 -18 45 -15 0 -18 -6 -14 -30 4 -28
2 -30 -27 -30 -21 0 -31 5 -31 15 0 8 -4 15 -10 15 -5 0 -10 25 -10 55 0 52 1
55 25 55 20 0 25 5 25 25 0 20 5 25 26 25 26 0 54 -20 54 -39 0 -6 7 -11 15
-11 9 0 15 9 15 25 0 20 5 25 26 25 42 0 54 -21 54 -94 0 -52 3 -66 15 -66 9
0 15 9 15 25 0 20 5 25 26 25 42 0 54 -21 54 -94 0 -52 3 -66 15 -66 9 0 15 9
15 25 0 20 5 25 26 25 26 0 54 -20 54 -39 0 -6 7 -11 15 -11 9 0 15 9 15 25 0
21 5 25 30 25 29 0 30 2 30 45 0 37 -3 45 -18 45 -15 0 -18 -6 -14 -30 4 -26
1 -30 -20 -30 -37 0 -58 33 -58 90 0 47 2 50 25 50 20 0 25 5 25 25 0 20 5 25
26 25 26 0 54 -20 54 -39 0 -6 7 -11 15 -11 9 0 15 9 15 25 0 20 5 25 26 25
42 0 54 -21 54 -94 0 -52 3 -66 15 -66 9 0 15 9 15 25 0 20 5 25 26 25 42 0
54 -21 54 -94 0 -52 3 -66 15 -66 9 0 15 9 15 25 0 20 5 25 26 25 26 0 54 -20
54 -39 0 -6 7 -11 15 -11 9 0 15 9 15 25 0 21 5 25 30 25 29 0 30 2 30 45 0
33 -4 45 -15 45 -10 0 -15 -10 -15 -30 0 -25 -4 -30 -25 -30 -16 0 -25 6 -25
15 0 8 -7 15 -15 15 -12 0 -15 13 -15 55 0 52 1 55 25 55 20 0 25 5 25 25 0
20 5 25 26 25 26 0 54 -20 54 -39 0 -6 7 -11 15 -11 9 0 15 9 15 25 0 20 5 25
26 25 26 0 54 -20 54 -39 0 -6 7 -11 15 -11 9 0 15 9 15 25 0 21 5 25 30 25
29 0 30 2 30 45 0 33 -4 45 -15 45 -10 0 -15 -10 -15 -30 0 -25 -4 -30 -25
-30 -16 0 -25 6 -25 15 0 8 -7 15 -15 15 -12 0 -15 13 -15 55 0 52 1 55 25 55
20 0 25 5 25 25 0 21 5 25 30 25 29 0 30 2 30 45 0 33 -4 45 -15 45 -10 0 -15
-10 -15 -30 0 -25 -4 -30 -25 -30 -16 0 -25 6 -25 15 0 8 -7 15 -15 15 -12 0
-15 14 -15 70 0 56 -3 70 -15 70 -10 0 -15 -10 -15 -30 0 -25 -4 -30 -25 -30
-16 0 -25 6 -25 15 0 8 -7 15 -15 15 -8 0 -15 7 -15 15 0 8 -7 15 -15 15 -10
0 -15 -10 -15 -31 0 -29 -2 -31 -30 -27 -29 4 -30 4 -30 -39 0 -32 4 -43 15
-43 9 0 15 9 15 25 0 20 5 25 26 25 39 0 54 -22 54 -79 0 -48 -2 -51 -25 -51
-21 0 -25 -5 -25 -30 0 -25 -4 -30 -25 -30 -16 0 -25 6 -25 15 0 8 -7 15 -15
15 -8 0 -15 7 -15 15 0 8 -7 15 -15 15 -10 0 -15 -10 -15 -30 0 -25 -4 -30
-25 -30 -16 0 -25 6 -25 15 0 8 -7 15 -15 15 -12 0 -15 14 -15 70 0 56 -3 70
-15 70 -10 0 -15 -10 -15 -30 0 -25 -4 -30 -23 -30 -36 0 -57 33 -57 90 0 47
2 50 25 50 20 0 25 5 25 25 0 21 5 25 30 25 29 0 30 2 30 45 0 33 -4 45 -15
45 -10 0 -15 -10 -15 -30 0 -25 -4 -30 -23 -30 -36 0 -57 33 -57 90 0 46 2 50
24 50 19 0 25 6 28 27 4 35 33 42 59 14 10 -11 19 -25 19 -31 0 -23 29 -8 32
17 4 35 33 42 59 14 10 -11 19 -25 19 -31 0 -24 29 -8 32 18 2 22 8 27 31 27
25 -1 27 2 27 42 0 32 -4 43 -15 43 -10 0 -15 -10 -15 -30 0 -25 -4 -30 -25
-30 -16 0 -25 6 -25 15 0 8 -7 15 -15 15 -12 0 -15 13 -15 55 0 52 1 55 25 55
20 0 25 5 25 23 0 42 34 51 63 17z"
    />
</g>
</svg>
